<?xml version="1.0" standalone="no"?>
<!DOCTYPE svg PUBLIC "-//W3C//DTD SVG 20010904//EN"
 "http://www.w3.org/TR/2001/REC-SVG-20010904/DTD/svg10.dtd">
<svg version="1.0" xmlns="http://www.w3.org/2000/svg"
 width="728.000000pt" height="728.000000pt" viewBox="0 0 728.000000 728.000000"
 preserveAspectRatio="xMidYMid meet">
<metadata>
Created by potrace 1.11, written by Peter Selinger 2001-2013
</metadata>
<g transform="translate(0.000000,728.000000) scale(0.100000,-0.100000)"
fill="#000000" stroke="none">
<path d="M3632 6981 c-8 -5 -13 -11 -12 -15 0 -4 -32 -41 -72 -82 -40 -42 -79
-82 -86 -90 -7 -8 -18 -14 -23 -14 -5 0 -8 -4 -6 -8 1 -5 -13 -25 -30 -46 -18
-20 -33 -34 -33 -31 0 3 -6 0 -14 -7 -8 -7 -13 -17 -13 -23 1 -5 -4 -9 -11 -7
-6 1 -11 -4 -10 -10 2 -7 -3 -12 -10 -10 -8 1 -11 -2 -8 -7 3 -5 -12 -25 -34
-45 -22 -20 -37 -36 -33 -36 5 0 -5 -9 -22 -20 -16 -11 -26 -20 -22 -20 4 0
-6 -15 -22 -32 -17 -18 -31 -37 -31 -41 0 -5 -4 -6 -9 -3 -4 3 -13 -6 -19 -19
-7 -14 -18 -25 -26 -25 -8 0 -18 -5 -22 -12 -5 -7 -2 -9 7 -3 8 4 -3 -9 -23
-28 -21 -20 -38 -38 -38 -42 0 -3 -31 -37 -70 -75 -38 -38 -70 -74 -70 -80 0
-5 -7 -10 -16 -10 -8 0 -12 -4 -9 -10 3 -5 -1 -10 -9 -10 -9 0 -15 -6 -13 -12
1 -7 -4 -12 -11 -10 -8 1 -11 -2 -8 -7 4 -5 1 -13 -6 -18 -7 -4 -30 -27 -50
-50 -20 -23 -39 -39 -42 -35 -3 3 -6 0 -6 -6 0 -7 -17 -30 -39 -52 -21 -22
-36 -42 -33 -45 3 -3 -3 -5 -13 -5 -10 0 -15 -3 -12 -7 9 -8 -22 -43 -39 -43
-7 0 -16 -5 -20 -12 -5 -7 -2 -9 7 -4 8 4 -5 -11 -28 -33 -23 -23 -40 -41 -38
-41 2 0 -23 -27 -55 -60 -33 -34 -60 -65 -60 -70 0 -5 -9 -12 -20 -15 -11 -4
-19 -9 -17 -13 2 -4 -8 -18 -21 -32 -14 -14 -21 -19 -17 -11 5 10 4 12 -4 7
-6 -4 -9 -11 -6 -16 3 -4 -13 -24 -35 -44 -22 -20 -37 -36 -34 -36 4 0 -16
-22 -44 -49 -28 -27 -48 -52 -45 -55 4 -3 2 -6 -4 -6 -5 0 -18 -16 -29 -35
-10 -19 -22 -35 -27 -35 -4 0 -6 -4 -2 -9 3 -6 -2 -14 -11 -19 -9 -5 -15 -13
-15 -18 2 -16 -20 -74 -28 -74 -4 0 -8 -6 -9 -12 -1 -22 -13 -71 -19 -81 -16
-26 -22 -238 -9 -312 5 -22 9 -49 11 -60 1 -11 7 -33 14 -48 6 -16 11 -31 11
-34 0 -13 75 -153 82 -153 4 0 8 -6 8 -13 0 -8 16 -30 35 -50 20 -21 34 -37
31 -37 -2 0 15 -19 38 -42 23 -24 45 -51 49 -60 3 -10 14 -18 22 -18 9 0 14
-4 11 -8 -3 -5 6 -15 19 -22 14 -7 25 -18 25 -24 0 -6 9 -17 20 -24 12 -7 18
-17 15 -22 -3 -5 0 -12 6 -16 8 -5 9 -3 4 7 -4 8 2 4 14 -8 11 -12 21 -27 21
-32 0 -5 5 -13 12 -17 7 -5 9 -2 3 7 -4 8 4 1 18 -16 32 -39 46 -26 18 17 -23
37 -84 157 -87 173 -1 6 -6 26 -10 45 -10 41 -11 200 -2 251 9 50 58 169 70
169 5 0 6 5 3 10 -3 6 1 13 9 16 9 3 14 9 11 13 -2 4 23 36 55 72 33 35 60 67
60 72 0 4 7 7 16 7 8 0 12 5 9 10 -3 6 1 10 10 10 9 0 14 4 11 9 -4 5 7 20 23
34 17 14 27 28 24 31 -4 3 2 6 12 6 10 0 16 3 12 6 -3 3 16 28 43 55 27 27 47
49 45 49 -3 0 3 8 13 18 9 11 20 17 25 15 4 -2 7 1 7 7 0 16 26 40 35 32 4 -4
5 -2 3 4 -1 7 14 28 34 48 20 20 35 36 33 36 -2 0 18 22 44 49 27 28 47 52 44
54 -2 3 5 8 16 12 12 3 21 13 21 21 0 8 5 12 10 9 6 -3 10 -1 10 5 0 17 26 40
35 32 5 -4 6 -2 2 3 -3 6 35 53 84 105 49 52 89 99 89 103 0 5 5 5 10 2 6 -3
10 -2 10 2 0 5 7 18 16 29 8 10 12 13 8 5 -5 -9 -3 -12 5 -7 6 4 9 11 6 16 -3
4 11 22 30 39 19 17 35 33 35 36 0 4 32 39 71 78 39 40 72 74 72 77 1 3 23 28
50 57 l50 51 26 -24 c14 -13 26 -30 26 -37 1 -6 6 -11 12 -10 6 1 24 -14 39
-35 16 -20 39 -45 51 -55 13 -10 20 -24 16 -30 -3 -7 -3 -9 2 -5 4 4 17 -3 29
-16 77 -85 91 -102 88 -109 -1 -5 2 -6 7 -3 5 3 20 -9 34 -27 14 -17 59 -68
101 -112 115 -122 116 -124 116 -134 0 -5 5 -13 12 -17 7 -5 8 -3 3 7 -5 8 8
-4 28 -25 20 -21 37 -42 37 -46 0 -4 7 -11 16 -14 8 -3 12 -10 9 -16 -3 -5 -2
-10 2 -10 5 0 18 -7 29 -16 10 -8 13 -12 5 -8 -9 5 -12 3 -7 -4 4 -7 12 -12
17 -12 14 0 75 -72 71 -84 -2 -6 -1 -8 3 -4 4 4 28 -16 54 -44 25 -28 63 -68
84 -90 21 -21 35 -38 32 -38 -4 0 12 -16 34 -36 22 -20 38 -41 34 -47 -3 -6
-1 -7 4 -4 6 4 17 -1 24 -10 12 -14 12 -16 0 -8 -10 5 -12 4 -7 -3 4 -7 13
-12 19 -12 7 0 30 -22 52 -50 22 -27 43 -50 48 -50 4 0 5 -4 2 -10 -3 -5 1
-10 10 -10 9 0 14 -4 11 -9 -3 -5 1 -12 10 -15 9 -4 14 -9 11 -12 -3 -3 3 -14
14 -25 11 -11 17 -24 14 -29 -4 -6 -2 -10 4 -10 8 0 18 -19 26 -50 1 -3 5 -13
8 -22 16 -41 20 -55 25 -88 7 -40 6 -207 0 -230 -3 -8 -8 -32 -13 -52 -4 -21
-12 -38 -18 -38 -6 0 -7 -3 -4 -6 6 -6 -52 -122 -76 -152 -5 -7 -7 -15 -4 -18
7 -7 51 26 57 41 7 18 27 34 35 27 5 -4 6 -2 2 4 -3 5 12 27 34 48 21 21 39
43 39 47 0 5 7 9 15 9 8 0 15 7 15 15 0 9 11 20 25 25 14 5 25 12 25 15 0 4
-6 3 -12 -1 -12 -6 53 66 107 121 11 11 22 25 23 30 1 6 12 24 24 40 13 17 23
32 23 35 1 3 9 21 20 40 10 19 20 42 21 50 2 8 8 16 14 18 5 2 8 8 4 13 -3 5
-2 15 3 22 9 15 9 14 26 107 17 94 14 214 -7 315 -8 37 -38 120 -48 133 -6 6
-7 12 -4 12 4 0 0 7 -8 16 -9 8 -14 20 -11 25 4 5 2 9 -3 9 -5 0 -12 8 -16 18
-10 30 -53 84 -144 181 -48 51 -87 98 -87 105 0 6 -5 11 -12 11 -6 0 -31 22
-55 50 -23 27 -59 64 -78 82 -19 18 -32 33 -28 33 4 0 -13 19 -37 41 -25 23
-42 46 -38 52 3 5 2 7 -4 4 -5 -3 -17 3 -26 14 -9 10 -15 19 -13 19 2 0 -24
28 -58 62 -33 34 -71 75 -83 92 -13 16 -23 27 -23 23 0 -4 -15 9 -32 29 -18
21 -32 42 -30 47 1 4 -2 6 -8 2 -5 -3 -10 1 -10 10 0 9 -4 13 -10 10 -5 -3
-10 1 -10 10 0 9 -4 13 -10 10 -5 -3 -10 -1 -10 5 0 6 -14 23 -30 37 -17 13
-27 30 -23 35 3 6 2 8 -3 5 -5 -3 -27 15 -49 41 -22 25 -52 57 -67 70 -15 14
-25 29 -22 33 3 5 -2 9 -10 9 -8 0 -18 9 -21 20 -4 11 -10 18 -15 15 -5 -3
-10 -1 -12 4 -1 6 -46 56 -98 112 -52 56 -95 105 -95 109 0 5 -4 12 -9 17 -6
5 -6 2 -1 -7 8 -13 7 -13 -8 -1 -10 8 -15 16 -12 19 3 3 -7 14 -22 24 -16 10
-25 18 -21 18 3 0 -18 24 -48 54 -30 29 -54 58 -54 65 0 6 -7 11 -17 11 -9 0
-14 3 -11 6 3 3 -13 24 -36 46 -22 23 -40 45 -38 50 1 4 -5 8 -13 8 -7 0 -18
7 -22 15 -5 9 -13 11 -21 6z"/>
<path d="M3569 6923 c-13 -16 -12 -17 4 -4 9 7 17 15 17 17 0 8 -8 3 -21 -13z"/>
<path d="M3589 5040 c-18 -22 -36 -37 -40 -34 -5 3 -9 1 -9 -5 0 -5 -16 -27
-35 -48 -19 -21 -35 -42 -35 -46 0 -5 -4 -6 -8 -3 -5 3 -16 -8 -26 -25 -9 -16
-21 -27 -25 -24 -5 2 -13 -7 -19 -20 -7 -14 -16 -25 -22 -25 -5 0 -10 -7 -10
-16 0 -8 -3 -14 -7 -12 -5 2 -21 -10 -37 -27 -17 -16 -28 -31 -25 -32 2 -1 -6
-11 -17 -22 -12 -11 -25 -17 -29 -13 -4 4 -5 2 -3 -4 1 -6 -24 -39 -56 -75
-33 -35 -53 -55 -46 -44 12 17 12 18 0 7 -8 -7 -15 -17 -15 -21 0 -4 -17 -27
-37 -50 -21 -22 -38 -38 -38 -35 0 4 -11 -8 -23 -27 -13 -19 -29 -33 -35 -32
-7 2 -12 -4 -12 -12 0 -8 -9 -20 -20 -27 -11 -7 -20 -18 -20 -25 0 -6 -9 -15
-20 -18 -11 -4 -18 -10 -15 -15 3 -5 -1 -12 -8 -17 -19 -10 -52 -76 -67 -133
-13 -45 -15 -119 -5 -175 3 -16 6 -36 7 -42 1 -7 4 -13 8 -13 3 0 11 -15 18
-32 13 -35 32 -60 117 -150 29 -31 51 -59 47 -63 -4 -4 -2 -5 3 -3 9 2 65 -46
65 -57 0 -2 28 -32 63 -68 34 -35 109 -115 167 -177 58 -63 122 -130 143 -149
20 -19 37 -42 37 -50 0 -8 3 -12 6 -9 3 4 22 -12 42 -35 20 -22 46 -51 57 -63
l20 -22 32 28 c17 16 29 31 26 33 -2 3 5 8 16 12 12 3 19 10 17 14 -3 4 14 25
37 47 23 22 56 56 74 76 17 20 34 34 37 31 3 -4 6 -1 6 6 0 11 26 40 198 219
34 36 62 68 62 72 0 11 48 49 54 43 3 -4 6 1 6 9 0 9 18 32 40 52 22 20 38 36
36 36 -2 0 23 27 55 60 32 33 58 61 57 63 0 1 9 21 21 44 11 23 21 49 21 58 0
8 4 15 8 15 4 0 9 32 10 71 4 111 -30 209 -100 282 -102 107 -126 134 -131
150 -4 9 -11 17 -17 17 -6 0 -18 7 -26 15 -9 8 -14 15 -11 15 2 0 -25 29 -59
65 -35 36 -64 68 -64 70 0 3 -20 23 -45 46 -25 23 -42 46 -38 53 3 6 3 8 -2 4
-4 -4 -17 2 -27 15 -18 21 -152 165 -244 263 -23 24 -44 44 -47 44 -3 0 -20
-18 -38 -40z"/>
<path d="M1325 3398 c-76 -9 -192 -40 -240 -66 -16 -9 -33 -15 -37 -14 -5 1
-8 -3 -8 -9 0 -5 -4 -8 -9 -5 -5 4 -11 2 -13 -2 -1 -4 -25 -23 -53 -42 -27
-18 -66 -50 -86 -71 -21 -21 -41 -35 -45 -31 -5 4 -6 3 -2 -2 4 -5 -5 -24 -21
-42 -25 -28 -101 -148 -101 -159 0 -2 -5 -16 -12 -32 -6 -15 -12 -30 -12 -33
-1 -3 -5 -11 -9 -17 -5 -7 -6 -13 -3 -13 3 0 -4 -26 -15 -57 -11 -32 -22 -62
-23 -68 -2 -5 -8 -30 -15 -55 -7 -25 -13 -47 -13 -50 0 -3 -4 -13 -10 -23 -5
-10 -11 -26 -13 -35 -6 -25 -54 -185 -62 -202 -3 -8 -5 -21 -4 -27 1 -7 -2
-13 -6 -13 -5 0 -10 -12 -11 -27 -1 -15 -8 -30 -15 -35 -6 -4 -9 -8 -5 -8 4 0
2 -15 -3 -32 -6 -18 -12 -37 -13 -43 -2 -5 -7 -25 -11 -42 -4 -18 -11 -33 -15
-33 -4 0 -7 -6 -7 -12 2 -23 -15 -88 -22 -88 -4 0 -8 -6 -9 -12 -3 -43 -45
-178 -54 -178 -5 0 -7 -4 -3 -9 3 -5 1 -20 -4 -33 -16 -39 -24 -62 -26 -78 -7
-39 -40 -135 -47 -138 -4 -2 -5 -8 -2 -13 3 -6 0 -17 -8 -26 -7 -9 -11 -18
-10 -20 7 -7 -22 -103 -30 -103 -5 0 -7 -4 -4 -9 5 -8 -4 -45 -22 -91 -3 -8
-6 -18 -7 -22 -2 -5 -3 -9 -5 -10 -1 -2 -3 -10 -5 -18 -4 -21 -35 -120 -48
-155 -6 -16 -12 -34 -12 -40 -3 -27 -30 -105 -38 -105 -4 0 -6 -4 -3 -8 3 -5
-6 -44 -19 -86 -13 -43 -22 -76 -19 -74 2 3 30 -1 62 -9 31 -7 69 -16 84 -18
15 -2 46 -9 70 -15 24 -7 52 -14 63 -16 22 -5 85 -19 125 -28 14 -3 48 -10 75
-17 28 -6 57 -13 65 -16 8 -4 18 -6 21 -5 4 1 22 -3 40 -9 19 -6 46 -12 60
-14 14 -2 53 -10 85 -19 32 -8 70 -17 84 -20 30 -6 124 -27 245 -55 50 -12
101 -24 115 -27 47 -9 135 -29 153 -34 13 -5 89 -22 112 -26 17 -3 57 -12 90
-20 33 -8 69 -17 80 -19 51 -12 66 -15 83 -19 59 -14 120 -28 137 -32 11 -2
90 -20 175 -40 129 -29 173 -35 265 -35 116 0 217 20 305 60 25 11 47 19 50
18 3 -1 16 8 30 21 23 22 35 26 55 22 5 -1 6 2 2 6 -4 5 9 18 30 31 21 13 36
23 32 23 -3 0 24 31 60 69 37 38 67 75 69 82 2 8 7 16 11 19 13 8 78 150 92
200 7 25 15 47 19 50 3 3 5 10 6 15 1 33 18 85 27 85 6 0 8 3 4 6 -3 3 1 27 9
52 8 26 17 56 19 68 3 12 12 40 20 64 19 53 19 60 0 60 -8 0 -14 -3 -13 -8 4
-14 -13 -52 -23 -52 -6 0 -7 -5 -4 -10 3 -6 -1 -13 -9 -16 -9 -3 -14 -10 -11
-14 3 -5 -3 -15 -13 -22 -11 -7 -20 -17 -22 -23 -7 -26 -13 -34 -21 -29 -5 3
-9 -1 -9 -8 -1 -29 -162 -134 -245 -159 -136 -42 -210 -40 -414 7 -36 9 -77
18 -91 20 -14 3 -38 9 -55 14 -16 5 -75 19 -130 30 -55 12 -104 23 -110 24 -5
2 -28 6 -50 11 -22 4 -44 10 -50 13 -5 3 -18 7 -30 8 -34 4 -68 11 -115 25
-25 7 -49 12 -54 10 -5 -1 -32 5 -60 13 -47 13 -124 31 -171 40 -43 8 -261 59
-275 64 -8 2 -22 6 -30 7 -27 4 -133 29 -215 49 -5 2 -31 6 -56 10 l-47 8 11
36 c6 21 15 40 20 43 5 3 8 9 8 13 -1 3 0 9 0 14 1 4 2 12 3 17 5 34 31 115
37 115 4 0 6 6 5 13 -2 20 38 147 47 147 4 0 5 5 2 10 -3 6 -3 16 2 23 4 6 8
17 10 22 9 40 13 57 33 110 12 33 23 67 24 75 6 40 31 110 39 110 4 0 6 4 3 9
-3 4 10 55 28 112 19 57 44 138 56 179 12 41 26 80 31 86 5 6 6 14 2 17 -3 4
0 13 7 22 7 8 9 15 5 15 -4 0 -2 6 4 13 6 8 8 17 4 20 -3 4 -1 7 6 7 7 0 10 4
7 9 -4 5 -1 22 5 38 6 15 13 39 15 52 3 14 8 29 12 35 4 6 7 13 7 16 0 3 11
39 25 80 13 41 24 80 26 85 5 21 35 104 49 136 40 90 151 220 180 211 5 -2 7
0 3 4 -18 17 152 104 212 109 9 0 21 4 27 8 7 4 55 8 108 8 52 1 95 4 95 9 0
7 -36 18 -115 37 -11 2 -37 7 -57 10 -21 3 -38 8 -38 12 0 3 -13 7 -29 8 -15
1 -68 12 -116 24 -133 32 -208 39 -320 27z"/>
<path d="M5776 3403 c-1 -1 -20 -5 -42 -8 -50 -6 -69 -10 -122 -25 -24 -6 -55
-13 -70 -15 -15 -2 -81 -18 -147 -34 -65 -16 -123 -27 -127 -25 -4 3 -8 0 -8
-5 0 -6 -3 -10 -7 -10 -19 3 -33 -2 -33 -12 0 -7 11 -8 33 -3 35 8 159 7 195
-1 65 -15 81 -19 115 -33 16 -7 32 -12 36 -12 4 0 18 -10 31 -22 14 -13 25
-22 25 -20 0 6 40 -12 52 -24 7 -6 9 -15 5 -19 -4 -5 -2 -5 5 -2 13 8 125
-111 117 -124 -3 -5 -1 -9 5 -9 6 0 20 -19 32 -42 30 -58 80 -209 73 -219 -3
-5 0 -9 5 -9 6 0 11 -5 11 -12 0 -7 21 -77 46 -157 26 -81 48 -150 49 -156 1
-5 5 -17 8 -25 7 -20 28 -88 31 -103 2 -7 6 -20 9 -29 14 -36 19 -54 23 -78 3
-13 10 -30 16 -37 6 -7 8 -13 5 -13 -3 0 0 -15 8 -34 8 -18 16 -44 19 -57 2
-13 14 -53 26 -89 12 -36 23 -72 25 -80 1 -8 8 -28 15 -45 6 -16 13 -40 13
-52 1 -13 5 -23 10 -23 4 0 6 -3 5 -7 -2 -7 14 -64 29 -103 8 -19 13 -41 15
-62 1 -10 6 -18 10 -18 4 0 8 -11 8 -24 0 -14 5 -28 10 -31 6 -4 10 -12 9 -18
-1 -7 3 -25 9 -40 7 -16 10 -33 6 -38 -3 -5 0 -9 5 -9 6 0 10 -3 9 -7 -1 -5 6
-32 15 -62 10 -29 15 -57 10 -61 -9 -8 -86 -29 -123 -34 -14 -2 -32 -6 -40 -9
-28 -10 -175 -41 -192 -40 -10 0 -18 -3 -18 -7 0 -4 -6 -7 -12 -7 -7 0 -44 -8
-81 -17 -38 -9 -73 -14 -78 -10 -5 3 -9 1 -9 -4 0 -5 -6 -9 -12 -9 -7 0 -56
-11 -108 -23 -52 -12 -105 -24 -118 -26 -13 -3 -60 -13 -104 -24 -45 -11 -85
-17 -90 -14 -4 3 -8 1 -8 -4 0 -5 -17 -12 -37 -15 -21 -3 -47 -8 -58 -11 -33
-7 -292 -66 -410 -93 -60 -13 -119 -27 -130 -31 -35 -10 -235 -11 -235 0 0 5
-4 7 -9 3 -12 -7 -155 42 -159 55 -2 6 -9 10 -15 10 -15 1 -126 80 -112 80 6
0 -5 9 -23 20 -18 11 -30 25 -27 30 3 6 2 10 -2 10 -11 0 -69 91 -65 102 1 4
-2 8 -8 8 -5 0 -10 6 -10 14 0 15 -18 32 -25 24 -2 -2 1 -21 6 -43 6 -22 12
-47 13 -55 2 -8 6 -22 9 -30 15 -38 81 -257 82 -272 1 -9 7 -23 14 -32 8 -9
11 -16 7 -16 -4 0 0 -13 8 -29 9 -16 12 -31 9 -35 -4 -3 -1 -6 5 -6 7 0 12 -5
12 -10 0 -14 91 -147 124 -181 13 -15 22 -30 18 -35 -4 -4 -2 -4 5 -1 6 4 22
-6 36 -22 14 -17 27 -28 30 -25 2 2 19 -9 36 -25 18 -17 33 -30 34 -29 8 4 47
-15 47 -23 0 -5 3 -8 8 -7 4 1 19 -4 35 -10 70 -30 83 -35 92 -37 93 -21 143
-27 219 -27 109 1 106 0 376 62 118 27 226 51 240 54 14 3 84 19 155 36 72 17
139 32 150 34 11 3 60 14 109 26 50 11 99 22 110 25 12 2 22 4 24 6 3 2 9 4
62 14 25 5 47 9 50 10 3 1 19 4 35 8 17 4 39 9 50 12 11 2 35 9 54 14 19 6 37
9 39 6 3 -2 12 0 21 4 9 5 30 11 46 14 17 3 77 17 135 31 58 13 116 27 130 30
14 2 45 9 70 15 25 7 56 14 70 17 14 2 61 13 105 24 44 10 94 22 110 25 109
21 140 32 139 51 -2 30 -11 64 -33 127 -11 31 -17 57 -14 57 3 0 1 6 -4 13 -8
10 -26 65 -24 74 0 2 -6 18 -15 38 -8 19 -11 35 -8 35 4 0 2 6 -4 13 -6 6 -10
14 -10 17 1 3 -6 28 -16 57 -9 28 -18 61 -19 72 -1 12 -4 21 -8 21 -7 0 -24
66 -22 88 0 6 -3 12 -8 12 -4 0 -11 17 -16 38 -9 46 -8 44 -17 64 -4 9 -9 22
-10 30 -2 7 -6 20 -9 28 -23 62 -46 144 -41 151 3 5 0 9 -7 9 -7 0 -9 3 -6 7
4 3 2 12 -5 20 -6 7 -8 16 -5 20 4 3 3 11 -2 17 -8 10 -39 103 -45 136 -2 8
-8 28 -15 44 -6 16 -9 31 -6 34 2 3 1 10 -4 16 -8 11 -89 260 -96 297 -2 11
-7 24 -10 29 -3 5 -8 18 -10 27 -2 10 -10 39 -19 64 -9 25 -17 54 -19 65 -2
10 -7 27 -11 36 -4 9 -9 25 -11 35 -2 10 -4 20 -6 23 -1 3 -3 10 -3 15 -1 6
-8 20 -14 33 -7 12 -10 27 -7 32 3 6 2 10 -2 10 -5 0 -9 8 -10 18 -2 26 -7 46
-13 52 -3 3 -14 34 -25 70 -10 36 -23 71 -28 78 -5 6 -7 12 -3 12 3 0 -5 18
-18 39 -14 21 -22 42 -19 45 4 3 0 6 -7 6 -7 0 -11 3 -8 6 3 3 -5 17 -18 31
-13 14 -21 31 -17 37 3 6 3 8 -2 4 -8 -7 -40 28 -40 44 0 3 -4 10 -9 15 -5 5
-6 2 -1 -7 4 -8 -3 -4 -16 10 -13 13 -23 28 -21 33 1 5 -2 6 -8 2 -5 -3 -10
-2 -10 3 0 5 -11 15 -25 22 -13 7 -21 18 -18 24 3 6 3 8 -2 4 -4 -4 -26 5 -49
21 -55 37 -165 88 -204 94 -17 3 -35 8 -40 11 -16 10 -238 27 -246 19z"/>
<path d="M2274 3007 c-8 -5 -18 -7 -21 -4 -3 3 -24 -3 -48 -13 -24 -10 -47
-15 -51 -12 -4 4 -4 2 0 -5 3 -7 -2 -14 -14 -18 -26 -8 -136 -119 -133 -135 0
-3 -3 -14 -8 -25 -8 -22 -18 -51 -20 -63 -1 -4 -6 -18 -11 -32 -9 -22 -14 -39
-21 -75 -2 -5 -5 -14 -8 -20 -4 -5 -10 -23 -14 -40 -5 -16 -9 -32 -10 -35 -1
-3 -6 -20 -10 -37 -4 -18 -11 -33 -16 -33 -5 0 -6 -6 -3 -13 2 -7 -3 -31 -12
-53 -10 -21 -18 -43 -19 -49 -2 -19 -26 -100 -41 -140 -9 -22 -15 -41 -15 -43
3 -5 -23 -87 -29 -92 -3 -3 -6 -12 -6 -20 0 -8 -13 -55 -29 -105 -16 -49 -30
-99 -32 -110 -2 -10 -7 -22 -11 -25 -4 -3 -8 -17 -10 -31 -3 -26 -1 -27 110
-53 62 -15 124 -29 138 -33 14 -3 30 -7 35 -7 6 -1 24 -5 40 -9 17 -4 40 -10
53 -12 12 -3 30 -7 40 -9 9 -2 69 -16 132 -31 63 -15 142 -33 175 -41 33 -8
69 -16 80 -19 11 -2 34 -8 50 -12 43 -10 44 -10 53 -13 4 -1 10 -2 14 -1 3 0
32 -6 65 -15 221 -58 416 59 479 287 10 35 20 66 23 69 3 3 7 18 9 35 2 16 7
32 10 35 4 3 9 16 10 29 2 14 9 36 15 50 5 14 9 30 9 34 -1 4 5 21 13 37 9 16
15 31 14 32 -4 9 15 79 22 84 5 3 7 10 4 15 -4 5 -2 9 3 9 6 0 9 6 8 13 -2 20
27 117 36 117 4 0 5 6 2 14 -3 8 2 28 11 45 8 17 13 31 11 31 -3 0 2 16 10 35
8 19 12 35 9 35 -3 0 0 10 7 23 7 12 12 25 11 28 -1 3 9 41 23 85 30 98 30
110 2 111 -13 0 -84 15 -158 33 -136 32 -159 38 -195 45 -11 3 -45 11 -75 19
-30 8 -58 12 -62 10 -5 -3 -8 -1 -8 3 0 5 -8 9 -17 10 -10 0 -27 3 -38 6 -19
6 -135 32 -183 43 -13 2 -69 16 -125 30 -116 29 -250 44 -273 31z"/>
<path d="M4805 3001 c-3 -2 -11 -6 -18 -7 -7 -1 -32 -7 -56 -14 -25 -6 -54
-13 -65 -14 -12 -1 -37 -8 -56 -14 -19 -6 -46 -13 -60 -16 -14 -2 -43 -9 -65
-14 -22 -6 -51 -13 -65 -15 -14 -3 -43 -10 -65 -15 -22 -6 -51 -13 -65 -16
-14 -3 -35 -7 -47 -10 -13 -4 -31 -8 -40 -10 -10 -2 -49 -12 -88 -21 -38 -9
-79 -18 -89 -21 -47 -9 -163 -37 -183 -43 -20 -6 -21 -8 -7 -47 7 -22 16 -52
18 -65 3 -13 5 -24 6 -24 1 0 3 -7 5 -15 2 -8 20 -67 40 -130 21 -63 41 -128
45 -145 5 -16 18 -60 29 -97 39 -128 62 -203 66 -218 2 -8 8 -27 14 -43 6 -15
13 -38 15 -50 2 -12 11 -41 20 -64 8 -24 13 -43 9 -43 -3 0 0 -6 6 -14 6 -7
12 -25 13 -40 1 -14 6 -26 11 -26 4 0 5 -4 2 -10 -3 -5 -2 -10 2 -10 10 0 37
-60 33 -75 -1 -5 1 -7 4 -4 4 3 31 -18 61 -47 30 -30 55 -51 55 -48 0 4 6 2
13 -4 37 -30 185 -53 245 -38 21 6 30 8 92 21 60 13 71 15 93 21 12 3 31 7 42
9 11 3 45 11 75 19 30 8 58 12 62 10 5 -3 8 0 8 6 0 6 4 9 8 6 5 -3 33 1 63 9
56 15 100 24 134 30 11 2 22 4 25 6 3 1 10 3 15 4 6 2 12 4 15 5 7 2 39 9 70
15 14 2 52 11 85 20 33 8 69 17 80 19 11 1 53 11 94 21 66 16 72 20 66 39 -6
21 -13 49 -20 76 -2 8 -4 16 -5 18 -2 1 -3 5 -4 10 -3 13 -49 156 -67 210 -11
29 -18 56 -17 60 1 4 -4 18 -12 32 -7 14 -13 27 -12 30 1 3 -4 23 -10 45 -7
22 -13 45 -14 50 0 6 -6 23 -13 38 -6 16 -9 33 -5 38 3 5 1 9 -4 9 -7 0 -30
69 -48 140 0 3 -3 12 -7 20 -3 8 -24 74 -47 147 -23 72 -48 137 -56 144 -8 6
-13 14 -10 16 2 3 -15 23 -39 46 -44 43 -115 87 -141 87 -8 0 -14 4 -14 9 0 9
-216 12 -225 2z"/>
</g>
</svg>
